Coordinates
version=1
nRows=4
nColumns=114
inDegrees=yes

Units are S.I. units (second, meters, Newtons, ...)
If the header above contains a line with 'inDegrees', this indicates whether rotational values are in degrees (yes) or radians (no).

endheader 
time	pelvis_tilt	pelvis_list	pelvis_rotation	pelvis_tx	pelvis_ty	pelvis_tz	hip_flexion_l	hip_adduction_l	hip_rotation_l	hip_flexion_r	hip_adduction_r	hip_rotation_r	knee_angle_l	knee_angle_r	ankle_angle_l	ankle_angle_r	subtalar_angle_l	subtalar_angle_r	mtp_angle_l	mtp_angle_r	lumbar_extension	lumbar_bending	lumbar_rotation	arm_flex_l	arm_add_l	arm_rot_l	arm_flex_r	arm_add_r	arm_rot_r	elbow_flex_l	elbow_flex_r	pro_sup_l	pro_sup_r	addbrev_l/activation	addlong_l/activation	addmagDist_l/activation	addmagIsch_l/activation	addmagMid_l/activation	addmagProx_l/activation	bflh_l/activation	bfsh_l/activation	edl_l/activation	ehl_l/activation	fdl_l/activation	fhl_l/activation	gaslat_l/activation	gasmed_l/activation	glmax1_l/activation	glmax2_l/activation	glmax3_l/activation	glmed1_l/activation	glmed2_l/activation	glmed3_l/activation	glmin1_l/activation	glmin2_l/activation	glmin3_l/activation	grac_l/activation	iliacus_l/activation	perbrev_l/activation	perlong_l/activation	piri_l/activation	psoas_l/activation	recfem_l/activation	sart_l/activation	semimem_l/activation	semiten_l/activation	soleus_l/activation	tfl_l/activation	tibant_l/activation	tibpost_l/activation	vasint_l/activation	vaslat_l/activation	vasmed_l/activation	addbrev_r/activation	addlong_r/activation	addmagDist_r/activation	addmagIsch_r/activation	addmagMid_r/activation	addmagProx_r/activation	bflh_r/activation	bfsh_r/activation	edl_r/activation	ehl_r/activation	fdl_r/activation	fhl_r/activation	gaslat_r/activation	gasmed_r/activation	glmax1_r/activation	glmax2_r/activation	glmax3_r/activation	glmed1_r/activation	glmed2_r/activation	glmed3_r/activation	glmin1_r/activation	glmin2_r/activation	glmin3_r/activation	grac_r/activation	iliacus_r/activation	perbrev_r/activation	perlong_r/activation	piri_r/activation	psoas_r/activation	recfem_r/activation	sart_r/activation	semimem_r/activation	semiten_r/activation	soleus_r/activation	tfl_r/activation	tibant_r/activation	tibpost_r/activation	vasint_r/activation	vaslat_r/activation	vasmed_r/activation	
          5.70000000	        -35.91150937	        -31.62625034	         18.50898451	         -2.27733852	          1.02798169	          0.06367826	         69.27140918	        -14.86330880	         13.90092281	          9.50375135	         -9.76262049	        -24.94293038	         29.83119215	          6.34053216	        -14.11177315	         -4.34993952	        -26.11320358	          3.49967754	         -0.40564202	          0.05712770	          1.30600433	        -28.42609779	         34.46166785	       -424.49618372	       -159.81198512	       -171.42357411	        -17.18589418	       -114.15972851	        215.12582536	         61.11693379	         51.71067505	         87.81280922	        107.51619989	          0.01011305	          0.01006067	          0.01014266	          0.01014809	          0.01014874	          0.03298573	          0.01545809	          0.03390704	          0.10829077	          0.02754649	          0.01504408	          0.01217473	          0.01030280	          0.01015975	          0.01008649	          0.01435886	          0.12030266	          0.01002659	          0.01003447	          0.01004550	          0.01013596	          0.01011226	          0.01014533	          0.01041629	          0.01015782	          0.02610621	          0.02915697	          0.01013135	          0.30397024	          0.05187040	          0.43999463	          0.01025535	          0.01041337	          0.01017147	          0.15645627	          0.06732802	          0.01230044	          0.13024186	          0.01489165	          0.01558530	          0.01166860	          0.02697965	          0.01080926	          0.01165887	          0.01138731	          0.03790655	          0.05228252	          0.06409866	          0.12038607	          0.03089001	          0.01252674	          0.01124187	          0.02410334	          0.02384227	          0.03510819	          0.03633773	          0.02085898	          0.01673562	          0.04490645	          0.10657287	          0.01178213	          0.02801097	          0.04396578	          0.01614633	          0.04524191	          0.02912588	          0.05643382	          0.02726466	          0.05591166	          0.05186934	          0.06283755	          0.05161622	          0.03037628	          0.01012350	          0.02752955	          0.17144864	          0.01073400	          0.01030883	          0.01010551	          0.01021036	
          5.71000000	        -36.78164398	        -31.99284552	         17.71720682	         -2.27331592	          1.02864267	          0.06431748	         69.31422111	        -15.53408214	         13.63374043	         10.53979249	         -9.65641772	        -26.07333014	         29.23708668	          5.76435657	        -13.95021317	         -4.15673213	        -26.10762660	          3.42373533	         -0.35140477	          0.04930864	          1.00087783	        -29.22974579	         39.03488966	       -434.07191482	       -161.53585198	       -169.43069779	         20.47451179	       -116.02617210	        207.60064468	         62.66056366	         49.80128646	         87.26892037	        106.20980061	          0.01015099	          0.01007889	          0.01016593	          0.01017156	          0.01018385	          0.02752173	          0.01298181	          0.02835374	          0.11927583	          0.08197068	          0.01376716	          0.01133176	          0.01005310	          0.01003173	          0.01008148	          0.01199636	          0.10026425	          0.01002781	          0.01003604	          0.01004691	          0.01013969	          0.01011689	          0.01015577	          0.01029704	          0.01016503	          0.02245185	          0.03444912	          0.01011975	          0.54814196	          0.05691028	          0.54387181	          0.01013523	          0.01022129	          0.01004393	          0.15552441	          0.13124563	          0.01217256	          0.10864433	          0.01242527	          0.01302297	          0.02499138	          0.04565185	          0.01040001	          0.01020750	          0.01103038	          0.09260389	          0.04357690	          0.05552291	          0.12692824	          0.04833126	          0.01174214	          0.01093555	          0.07040614	          0.02062724	          0.02926779	          0.03028737	          0.01739298	          0.01396160	          0.03743606	          0.08882627	          0.01038738	          0.02339586	          0.03670755	          0.01614391	          0.03963784	          0.04498900	          0.05958047	          0.02323635	          0.36384401	          0.04323172	          0.15748268	          0.04301856	          0.02534705	          0.01011499	          0.03192075	          0.19299199	          0.01052157	          0.01033497	          0.01011719	          0.01023426	
          5.72000000	        -37.55894142	        -32.30465644	         16.80010230	         -2.26918024	          1.02858550	          0.06511388	         69.29345914	        -16.31547727	         13.37067943	         11.54428873	         -9.52680331	        -27.03255904	         28.68730166	          5.33836556	        -13.69847078	         -3.94140053	        -25.99043670	          3.20461999	         -0.30767235	          0.05302741	          0.24245464	        -29.92984872	         44.58266997	       -443.08463033	       -166.85668613	       -164.85180557	         64.96330701	       -142.02212782	        187.26002992	         64.48315004	         33.56873596	         86.93814124	        105.68661175	          0.01003925	          0.01002367	          0.01003837	          0.01004980	          0.01003553	          0.02295960	          0.01102803	          0.12870529	          0.12973130	          0.06869456	          0.01214827	          0.01090520	          0.02949786	          0.03003616	          0.01007505	          0.01010736	          0.08356425	          0.01002824	          0.01003716	          0.01004754	          0.01012416	          0.01013019	          0.01020437	          0.01016843	          0.01229425	          0.05459305	          0.09918979	          0.01034719	          0.65324502	          0.04944974	          0.84792442	          0.01018238	          0.01026264	          0.01009927	          0.16834582	          0.18152939	          0.01064882	          0.09054772	          0.01035782	          0.01086002	          0.05022985	          0.05324584	          0.01017423	          0.01008151	          0.01310271	          0.09211966	          0.03632243	          0.14813859	          0.10596290	          0.09006828	          0.01068212	          0.01018090	          0.05895370	          0.01792442	          0.02440122	          0.02524555	          0.01450544	          0.01165749	          0.03121084	          0.07403687	          0.01052621	          0.01955669	          0.03065537	          0.02985218	          0.28965289	          0.04196829	          0.05247971	          0.01981190	          0.39146896	          0.08871358	          0.21698921	          0.03585414	          0.02116405	          0.01001222	          0.02749530	          0.16089866	          0.01009675	          0.01003081	          0.01001047	          0.01002143	
          5.73000000	        -38.29635362	        -32.45680772	         15.85989225	         -2.26297810	          1.02903767	          0.06543553	         69.03877519	        -17.08625022	         12.98145636	         12.43511239	         -9.38412470	        -27.88955584	         28.27833918	          5.07037174	        -13.44186674	         -3.65187954	        -25.71519832	          2.78137572	         -0.25837202	          0.05451784	         -0.60283495	        -30.13498765	         49.61979336	       -451.35793690	       -173.70702392	       -159.18035989	         87.91763381	       -185.88616015	        124.46198157	         65.48181026	         13.55365751	         86.81758672	        106.78868122	          0.01009133	          0.01004749	          0.01010335	          0.01011629	          0.01010840	          0.01919400	          0.01109347	          0.10730449	          0.10879845	          0.05882282	          0.01086627	          0.01023856	          0.02459384	          0.02503586	          0.01005667	          0.01008859	          0.06965606	          0.01001893	          0.01002543	          0.01003362	          0.01008914	          0.01008072	          0.01011649	          0.01033389	          0.01032066	          0.05889142	          0.08320748	          0.01009176	          0.54440607	          0.04640124	          0.70684570	          0.01023061	          0.01033411	          0.01002802	          0.14033227	          0.15493066	          0.01013290	          0.16230155	          0.01017759	          0.01033962	          0.04190612	          0.04439013	          0.01073048	          0.01053633	          0.01132915	          0.07689823	          0.03027852	          0.12350389	          0.09441286	          0.07526959	          0.01641253	          0.01445691	          0.04917686	          0.01496354	          0.02036154	          0.02105062	          0.01214357	          0.01033834	          0.02603933	          0.06175542	          0.01085546	          0.01644514	          0.02702007	          0.02496875	          0.24140326	          0.03557565	          0.04755471	          0.02331585	          0.32625239	          0.19048818	          0.18091133	          0.02988364	          0.01767775	          0.01219991	          0.02462782	          0.14095312	          0.01363910	          0.01216159	          0.01195422	          0.01194514	
